PathFileType	4	(X/Y/Z)	C:\ABL_Data\ExoAging\Piloting\Dec 6 2019\Generated_files\static_1.trc
DataRate	CameraRate	NumFrames	NumMarkers	Units	OrigDataRate	OrigDataStartFrame	OrigNumFrames
100.00	100.00	       20	20	mm	100.00	270	       539
Frame#	Time	R.Acromium			L.Acromium			Sternum			R.ASIS			R.PSIS			S2			L.PSIS			L.ASIS			R.Knee			R.Ankle			L.Knee			L.Ankle			R.MKnee			R.MAnkle			L.MKnee			L.MAnkle			C7			T12			Clav			R.Back			
		X1	Y1	Z1	X2	Y2	Z2	X3	Y3	Z3	X4	Y4	Z4	X5	Y5	Z5	X6	Y6	Z6	X7	Y7	Z7	X8	Y8	Z8	X9	Y9	Z9	X10	Y10	Z10	X11	Y11	Z11	X12	Y12	Z12	X13	Y13	Z13	X14	Y14	Z14	X15	Y15	Z15	X16	Y16	Z16	X17	Y17	Z17	X18	Y18	Z18	X19	Y19	Z19	X20	Y20	Z20	

270	2.690	768.07416	362.60815	1490.76794	782.06439	766.56018	1482.95459				846.81085	423.91837	1006.90619	663.26318	506.46024	1042.77588	646.97009	559.01868	1018.98334	668.17377	609.01331	1046.78943	856.59357	683.67078	1018.55457	755.48981	361.65555	512.89172	693.04706	359.12567	87.38225	754.68854	740.99213	509.85077	701.14532	752.23529	79.62054	778.25378	475.58490	490.19391	738.85498	439.40063	92.76236	764.55365	628.28741	487.44629	716.68567	661.64063	93.80795	690.45789	550.69250	1556.17664	665.26331	560.16327	1186.15906	849.07178	555.17651	1456.70459	620.71387	437.79883	1395.07776	
271	2.700	768.05469	362.57874	1490.75916	782.05389	766.49457	1482.93384				846.77820	423.90088	1006.91730	663.26941	506.42654	1042.75708	646.94220	559.02484	1018.97577	668.99683	609.08264	1046.53418	856.50836	683.66901	1018.47913	755.46301	361.67288	512.92383	693.05786	359.12589	87.38048	754.62494	741.09662	509.88470	701.14502	752.21271	79.61165	778.24286	475.62012	490.21405	738.89655	439.41089	92.78778	764.52557	628.29645	487.45734	716.70612	661.62982	93.79565	690.44678	550.64636	1556.18298	665.22528	560.17981	1186.15857	849.06158	555.13379	1456.72046	620.72424	437.74945	1395.08264	
272	2.710	768.03992	362.53812	1490.75562	782.02118	766.50641	1482.98535				846.76715	423.95050	1006.95441	663.22797	506.46317	1042.77661	646.92755	559.03882	1018.98785	668.94940	609.10419	1046.50098	856.53650	683.67053	1018.58337	755.45868	361.67279	512.89258	693.05688	359.12646	87.38690	754.63098	741.05347	509.87906	701.17664	752.17548	79.59455	778.24316	475.59424	490.22873	738.86664	439.40683	92.74645	764.49707	628.33099	487.42407	716.70227	661.64771	93.77109	690.41760	550.56104	1556.15405	665.17401	560.20978	1186.18994	849.03986	555.16803	1456.72119	620.67743	437.78033	1395.07947	
273	2.720	768.00885	362.61511	1490.72510	781.97211	766.50134	1482.93848				846.74329	423.99457	1006.93250	663.17480	506.47284	1042.75378	646.89380	559.04163	1018.98914	668.07538	609.05585	1046.78674	856.48877	683.66602	1018.56384	755.46973	361.67407	512.87738	693.09271	359.13083	87.35937	754.61145	741.08301	509.88565	701.21594	752.16016	79.59737	778.28699	475.60507	490.19696	738.94849	439.39096	92.75001	764.51898	628.28162	487.45596	716.75159	661.63373	93.76437	690.37878	550.58386	1556.16809	665.11597	560.20898	1186.19458	849.01874	555.10742	1456.69629	620.63446	437.82468	1395.07983	
274	2.730	767.99066	362.56094	1490.73291	781.98035	766.42816	1482.95679				846.72461	424.02252	1006.92426	663.11481	506.49005	1042.76892	646.86163	559.03796	1018.99353	667.98401	609.08936	1046.80383	856.44781	683.75153	1018.51227	755.47034	361.68237	512.89539	693.09552	359.12750	87.37334	754.59827	741.07562	509.89407	701.21936	752.21527	79.58004	778.31262	475.62170	490.20844	738.92004	439.38943	92.71843	764.45905	628.32526	487.46234	716.74982	661.62848	93.73506	690.37964	550.48608	1556.18274	665.10504	560.19006	1186.16797	849.00604	555.11407	1456.68787	620.61957	437.81842	1395.09277	
275	2.740	767.96826	362.54703	1490.74768	781.97644	766.43042	1482.97620				846.73077	424.02115	1006.90057	663.10638	506.45862	1042.75793	646.85962	559.02820	1018.97589	668.83130	609.10669	1046.50354	856.41388	683.71228	1018.58405	755.47589	361.69312	512.90631	693.08563	359.12296	87.35055	754.57269	741.06067	509.87799	701.21143	752.19397	79.54261	778.34113	475.64240	490.16287	738.92975	439.39157	92.72303	764.42853	628.43304	487.45526	716.77789	661.62402	93.74967	690.36359	550.56061	1556.17725	665.05676	560.20740	1186.18506	848.96375	555.15967	1456.63049	620.60272	437.78174	1395.08691	
276	2.750	767.96851	362.56729	1490.72107	781.94946	766.44257	1482.94653				846.66742	424.03632	1006.94196	663.06067	506.48587	1042.74219	646.80249	559.03088	1018.96350	667.92560	609.10382	1046.80115	856.34094	683.74963	1018.57947	755.46985	361.67285	512.88428	693.06097	359.13397	87.33178	754.51654	741.13434	509.91101	701.19342	752.19110	79.56302	778.32092	475.62115	490.19055	738.93628	439.39966	92.73183	764.41534	628.41180	487.47809	716.72345	661.65240	93.74033	690.34723	550.50183	1556.13525	665.01550	560.20007	1186.19275	848.94873	555.16492	1456.63220	620.56268	437.76178	1395.06873	
277	2.760	767.94659	362.53027	1490.72205	781.92865	766.47229	1482.89014				846.63293	424.06271	1006.91235	663.04980	506.48764	1042.72937	646.79028	559.06458	1018.96899	668.80200	609.08710	1046.49854	856.28088	683.78613	1018.57141	755.47003	361.69382	512.90015	693.05182	359.14432	87.35786	754.56000	741.04431	509.87625	701.17804	752.22504	79.57194	778.26459	475.64389	490.16791	738.86737	439.38678	92.70505	764.33588	628.46484	487.45563	716.68964	661.65137	93.74010	690.35657	550.48083	1556.12720	664.99023	560.21570	1186.18445	848.97278	555.15149	1456.60474	620.54565	437.81964	1395.06079	
278	2.770	767.94189	362.54578	1490.68738	781.96332	766.44757	1483.00195				846.59174	424.05438	1006.91742	662.99207	506.49582	1042.76038	646.75360	559.04913	1018.96417	667.82379	609.09418	1046.80164	856.18774	683.80688	1018.53729	755.44916	361.77850	512.87329	693.06219	359.13419	87.35149	754.49060	741.14935	509.91672	701.16162	752.21313	79.57424	778.26172	475.65210	490.16364	738.87872	439.39352	92.69264	764.23938	628.37451	487.47855	716.66583	661.64746	93.75653	690.34436	550.55798	1556.16174	664.96875	560.21484	1186.20374	848.98254	555.12494	1456.60840	620.52911	437.77481	1395.10522	
279	2.780	767.96832	362.50357	1490.65430	781.95795	766.52100	1482.95459				846.55487	424.05319	1006.85126	662.99127	506.45892	1042.76807	646.72034	559.01282	1018.99292	667.81360	609.08167	1046.81506	856.18884	683.77673	1018.61591	755.47650	361.70029	512.86127	693.06256	359.11053	87.34361	754.44562	741.12830	509.93671	701.14777	752.23529	79.59664	778.24194	475.66742	490.14890	738.85242	439.40634	92.73729	764.24518	628.37860	487.45901	716.64929	661.66742	93.75913	690.35626	550.56134	1556.17383	664.95343	560.17810	1186.21558	848.99908	555.10223	1456.60095	620.53113	437.79498	1395.11377	
280	2.790	767.86389	362.15012	1490.62061	781.96179	766.56250	1482.96460				846.54309	424.10107	1006.92938	662.95905	506.46777	1042.76917	646.69586	559.00854	1018.97980	667.77710	609.07965	1046.82104	856.12592	683.78870	1018.59967	755.43329	361.72623	512.95715	693.05060	359.12036	87.34705	754.42139	741.10156	509.91101	701.13354	752.22955	79.59379	778.21350	475.64658	490.15289	738.84381	439.40533	92.73528	764.18909	628.35406	487.46655	716.62598	661.66339	93.75754	690.35919	550.50226	1556.16406	664.90027	560.20313	1186.22986	848.99902	555.16724	1456.57703	620.52393	437.86816	1395.11523	
281	2.800	767.87152	362.18704	1490.62988	782.02356	766.47351	1483.02759				846.54553	424.07916	1006.91833	662.92041	506.43832	1042.76196	646.65741	559.00421	1018.96954	668.60583	609.16962	1046.55200	856.03143	683.84753	1018.50763	755.41284	361.72144	512.98590	693.00757	359.13074	87.33553	754.38885	741.13434	509.91931	701.12970	752.24243	79.57785	778.22131	475.66833	490.15485	738.85986	439.40887	92.75325	764.13531	628.39142	487.50793	716.64063	661.61249	93.78673	690.38037	550.57196	1556.18323	664.90753	560.22607	1186.23438	849.01892	555.21295	1456.56836	620.52441	437.88724	1395.12708	
282	2.810	767.88446	362.19778	1490.63354	782.01367	766.62762	1482.98242				846.49530	424.13446	1006.88947	662.87915	506.47586	1042.81750	646.65961	559.00201	1018.98383	667.67920	609.11853	1046.85779	855.96051	683.87238	1018.47614	755.44739	361.68665	512.89410	693.06012	359.11877	87.35461	754.33496	741.18683	509.94684	701.13904	752.23096	79.57356	778.21893	475.66357	490.17316	738.85797	439.39999	92.71820	764.11102	628.36505	487.52557	716.64557	661.66272	93.75975	690.37982	550.62103	1556.15527	664.89307	560.24359	1186.25037	849.01935	555.21924	1456.56836	620.53369	437.94766	1395.13135	
283	2.820	767.97192	362.64218	1490.59229	782.07159	766.56763	1483.01221				846.48096	424.12512	1006.82001	662.84723	506.42371	1042.82483	646.60248	558.99072	1019.01862	667.60840	609.05481	1046.84766	855.91241	683.87659	1018.44745	755.44165	361.70398	512.87695	693.06635	359.11145	87.33696	754.31696	741.14520	509.93393	701.15546	752.22638	79.54826	778.22815	475.65961	490.14670	738.90668	439.37131	92.69226	764.07239	628.38727	487.51251	716.66840	661.65985	93.72682	690.38934	550.61877	1556.18469	664.86566	560.24719	1186.22424	849.00891	555.26758	1456.55408	620.53406	437.95425	1395.13428	
284	2.830	767.99768	362.61099	1490.64136	782.07379	766.61304	1483.04822				846.46191	424.17252	1006.82404	662.75745	506.43604	1042.87537	646.55731	558.97931	1019.03595	667.59125	609.07819	1046.85181	855.93384	683.86633	1018.49609	755.40796	361.72940	512.88184	693.08539	359.11713	87.34402	754.28143	741.14514	509.94907	701.18097	752.20520	79.54011	778.27148	475.64783	490.14233	738.89642	439.39133	92.66673	764.03247	628.38922	487.51138	716.68085	661.67645	93.70076	690.39893	550.65283	1556.21399	664.81714	560.29358	1186.26233	849.04919	555.18213	1456.58691	620.53387	437.96368	1395.15173	
285	2.840	768.00354	362.63278	1490.63647	782.08594	766.65845	1483.02234				846.44745	424.18808	1006.86346	662.74988	506.43365	1042.87939	646.53601	558.96838	1019.05579	668.49933	609.11414	1046.58582	855.83984	683.87268	1018.45697	755.36804	361.73026	512.91327	693.07092	359.11795	87.33240	754.23883	741.14099	509.97534	701.18134	752.19849	79.54251	778.25641	475.64166	490.17178	738.86292	439.38287	92.67629	764.03333	628.39221	487.51135	716.70178	661.63708	93.73002	690.40839	550.76569	1556.27087	664.86072	560.28638	1186.29626	849.03717	555.23560	1456.61621	620.53790	437.99332	1395.18030	
286	2.850	767.98334	362.62244	1490.64844	782.10962	766.61371	1483.02124				846.40015	424.13199	1006.82825	662.74152	506.42163	1042.87878	646.49316	558.93976	1019.04333	667.56140	609.05194	1046.87244	855.78064	683.90942	1018.46692	755.35095	361.73529	512.87103	693.07440	359.10199	87.34043	754.20569	741.17560	509.98172	701.15533	752.24121	79.56138	778.25543	475.64154	490.19153	738.87024	439.35925	92.70030	764.00690	628.37567	487.50790	716.63098	661.68024	93.70195	690.43604	550.69934	1556.23145	664.83942	560.31567	1186.30835	849.04266	555.26379	1456.57324	620.54858	438.01672	1395.16992	
287	2.860	768.00104	362.64517	1490.66821	782.12433	766.67761	1483.03796				846.32513	424.17010	1006.76367	662.71783	506.45383	1042.88318	646.46985	558.96442	1019.05737	667.51361	609.07843	1046.87061	855.76892	683.94855	1018.49225	755.35089	361.69934	512.87207	693.04291	359.12140	87.33733	754.19226	741.11688	509.94550	701.13055	752.22516	79.55032	778.19269	475.64743	490.15515	738.84027	439.38669	92.72288	763.96021	628.37988	487.54285	716.60040	661.66077	93.71859	690.44080	550.73145	1556.23389	664.82709	560.31976	1186.29919	849.04114	555.25256	1456.58594	620.54633	438.02692	1395.19849	
288	2.870	767.94464	362.29822	1490.72424	782.11438	766.72485	1482.97961				846.26117	424.19736	1006.81982	662.64807	506.47409	1042.91125	646.44550	558.95984	1019.07031	667.47388	609.10400	1046.92212	855.65234	683.92993	1018.41730	755.30945	361.73822	512.96844	693.05188	359.10889	87.34988	754.14124	741.11865	509.97168	701.10748	752.23181	79.56334	778.14490	475.65558	490.14307	738.84985	439.41425	92.74224	763.96558	628.39838	487.52551	716.59711	661.64758	93.73808	690.48132	550.75714	1556.25427	664.83325	560.33575	1186.32764	849.04669	555.25494	1456.57556	620.56195	438.04160	1395.21521	
289	2.880	767.94464	362.39157	1490.71680	782.09045	766.75385	1482.96094				846.22247	424.19315	1006.79626	662.62958	506.47488	1042.92322	646.42950	558.96967	1019.09229	667.42865	609.11096	1046.92712	855.62781	683.97510	1018.41217	755.32312	361.71381	512.89612	693.03174	359.10425	87.34351	754.08740	741.18927	509.97632	701.09326	752.23993	79.55786	778.12793	475.65625	490.19098	738.79639	439.39279	92.69105	763.92383	628.36804	487.56342	716.56763	661.66223	93.75017	690.46155	550.83417	1556.26160	664.81091	560.34924	1186.30554	849.03125	555.35553	1456.56055	620.57288	438.10736	1395.22461	
